# Blender v2.91.2 OBJ File: 'Cortinas.blend'
# www.blender.org
mtllib Cortinas.mtl
o Cube_Cube.001
v -1.971086 5.000000 0.166800
v -2.000000 6.000000 0.195714
v -1.971086 5.000000 0.033200
v -2.000000 6.000000 0.004286
v -2.000000 5.000000 0.004286
v -2.000000 5.000000 0.195714
v -0.028914 5.000000 0.033200
v -0.028914 5.000000 0.166800
v 1.971086 5.000000 0.166800
v 2.000000 6.000000 0.195714
v 1.971086 5.000000 0.033200
v 2.000000 6.000000 0.004286
v 0.000000 5.000000 0.004286
v 0.000000 6.000000 0.004286
v 0.000000 5.000000 0.195714
v 0.000000 6.000000 0.195714
v 2.000000 5.000000 0.004286
v 2.000000 5.000000 0.195714
v 0.028914 5.000000 0.033200
v 0.028914 5.000000 0.166800
v -1.330928 5.000000 0.166800
v -1.330928 5.000000 0.033200
v -0.388756 2.010866 0.033200
v 0.190554 5.000000 0.033200
v 0.190554 5.000000 0.166800
v -0.388756 2.010866 0.166800
v -1.330928 1.525617 0.033200
v -1.330928 1.525617 0.166800
v -1.951153 5.000000 0.166800
v -1.951153 5.000000 0.033200
v -1.440111 1.970429 0.033200
v -1.265174 5.000000 0.033200
v -1.265174 5.000000 0.166800
v -1.440111 1.970429 0.166800
v -1.951153 1.525617 0.033200
v -1.951153 1.525617 0.166800
v 1.330928 5.000000 0.166800
v 1.330928 5.000000 0.033200
v 0.388756 2.010866 0.033200
v -0.190554 5.000000 0.033200
v -0.190554 5.000000 0.166800
v 0.388756 2.010866 0.166800
v 1.330928 1.525617 0.033200
v 1.330928 1.525617 0.166800
v 1.951153 5.000000 0.166800
v 1.951153 5.000000 0.033200
v 1.440111 1.970429 0.033200
v 1.265174 5.000000 0.033200
v 1.265174 5.000000 0.166800
v 1.440111 1.970429 0.166800
v 1.951153 1.525617 0.033200
v 1.951153 1.525617 0.166800
vt 0.375000 0.000000
vt 0.625000 0.000000
vt 0.625000 0.250000
vt 0.375000 0.250000
vt 0.375000 0.875000
vt 0.625000 0.875000
vt 0.625000 1.000000
vt 0.375000 1.000000
vt 0.750000 0.500000
vt 0.875000 0.500000
vt 0.875000 0.750000
vt 0.750000 0.750000
vt 0.625000 0.375000
vt 0.375000 0.375000
vt 0.126807 0.537761
vt 0.126807 0.712239
vt 0.125000 0.750000
vt 0.125000 0.500000
vt 0.248193 0.537761
vt 0.250000 0.500000
vt 0.248193 0.712239
vt 0.250000 0.750000
vt 0.375000 0.000000
vt 0.375000 0.250000
vt 0.625000 0.250000
vt 0.625000 0.000000
vt 0.375000 1.000000
vt 0.625000 1.000000
vt 0.875000 0.750000
vt 0.875000 0.500000
vt 0.126807 0.537761
vt 0.125000 0.500000
vt 0.125000 0.750000
vt 0.126807 0.712239
vt 0.248193 0.537761
vt 0.248193 0.712239
vt 0.248193 0.712239
vt 0.126807 0.712239
vt 0.126807 0.712239
vt 0.248193 0.712239
vt 0.126807 0.537761
vt 0.248193 0.537761
vt 0.126807 0.537761
vt 0.248193 0.537761
vt 0.248193 0.712239
vt 0.126807 0.712239
vt 0.126807 0.712239
vt 0.248193 0.712239
vt 0.126807 0.537761
vt 0.248193 0.537761
vt 0.126807 0.537761
vt 0.248193 0.537761
vt 0.248193 0.712239
vt 0.248193 0.712239
vt 0.126807 0.712239
vt 0.126807 0.712239
vt 0.126807 0.537761
vt 0.248193 0.537761
vt 0.126807 0.537761
vt 0.248193 0.537761
vt 0.248193 0.712239
vt 0.248193 0.712239
vt 0.126807 0.712239
vt 0.126807 0.712239
vt 0.126807 0.537761
vt 0.248193 0.537761
vt 0.126807 0.537761
vt 0.248193 0.537761
vn -1.0000 0.0000 0.0000
vn 0.0000 0.0000 1.0000
vn 0.0000 1.0000 0.0000
vn 0.0000 0.0000 -1.0000
vn 0.0000 -1.0000 0.0000
vn 1.0000 0.0000 0.0000
vn 0.4579 -0.8890 0.0000
vn 0.9817 -0.1903 0.0000
vn 0.6565 -0.7543 0.0000
vn 0.9983 -0.0576 0.0000
vn -0.4579 -0.8890 0.0000
vn -0.9817 -0.1903 0.0000
vn -0.6565 -0.7543 0.0000
vn -0.9983 -0.0576 0.0000
usemtl None
s off
f 6/1/1 2/2/1 4/3/1 5/4/1
f 15/5/2 16/6/2 2/7/2 6/8/2
f 14/9/3 4/10/3 2/11/3 16/12/3
f 5/4/4 4/3/4 14/13/4 13/14/4
f 3/15/5 1/16/5 6/17/5 5/18/5
f 7/19/5 3/15/5 5/18/5 13/20/5
f 1/16/5 8/21/5 15/22/5 6/17/5
f 8/21/5 7/19/5 13/20/5 15/22/5
f 18/23/6 17/24/6 12/25/6 10/26/6
f 15/5/2 18/27/2 10/28/2 16/6/2
f 14/9/3 16/12/3 10/29/3 12/30/3
f 17/24/4 13/14/4 14/13/4 12/25/4
f 11/31/5 17/32/5 18/33/5 9/34/5
f 19/35/5 13/20/5 17/32/5 11/31/5
f 9/34/5 18/33/5 15/22/5 20/36/5
f 20/36/5 15/22/5 13/20/5 19/35/5
f 25/37/2 21/38/2 28/39/2 26/40/2
f 27/41/7 23/42/7 26/40/7 28/39/7
f 21/38/1 22/43/1 27/41/1 28/39/1
f 22/43/4 24/44/4 23/42/4 27/41/4
f 24/44/8 25/37/8 26/40/8 23/42/8
f 33/45/2 29/46/2 36/47/2 34/48/2
f 35/49/9 31/50/9 34/48/9 36/47/9
f 29/46/1 30/51/1 35/49/1 36/47/1
f 30/51/4 32/52/4 31/50/4 35/49/4
f 32/52/10 33/45/10 34/48/10 31/50/10
f 41/53/2 42/54/2 44/55/2 37/56/2
f 43/57/11 44/55/11 42/54/11 39/58/11
f 37/56/6 44/55/6 43/57/6 38/59/6
f 38/59/4 43/57/4 39/58/4 40/60/4
f 40/60/12 39/58/12 42/54/12 41/53/12
f 49/61/2 50/62/2 52/63/2 45/64/2
f 51/65/13 52/63/13 50/62/13 47/66/13
f 45/64/6 52/63/6 51/65/6 46/67/6
f 46/67/4 51/65/4 47/66/4 48/68/4
f 48/68/14 47/66/14 50/62/14 49/61/14
